<svg width="28" height="28" viewBox="0 0 28 28" fill="none" xmlns="http://www.w3.org/2000/svg">
<path d="M14 28C21.732 28 28 21.732 28 14C28 6.26801 21.732 0 14 0C6.26801 0 0 6.26801 0 14C0 21.732 6.26801 28 14 28Z" fill="#4353FF"/>
<path d="M18.1123 12.3375L16.8435 16.3362C16.8435 16.03 15.9685 9.39746 15.9685 9.39746C13.956 9.39746 12.8885 10.8237 12.3285 12.3375L10.7798 16.345C10.7798 16.0562 10.561 12.3725 10.561 12.3725C10.4863 11.575 10.1217 10.8326 9.53637 10.286C8.951 9.73929 8.18546 9.42628 7.38477 9.40621L9.02977 19.4512C11.1298 19.4512 12.2673 18.025 12.8535 16.5112L14.166 13.0987C14.166 13.2387 15.041 19.4512 15.041 19.4512C15.8997 19.4501 16.7358 19.1756 17.428 18.6674C18.1202 18.1593 18.6327 17.4439 18.891 16.625L21.866 9.39746C19.766 9.39746 18.6635 10.8237 18.1035 12.3375H18.1123Z" fill="white"/>
</svg>
