<svg width="133" height="33" viewBox="0 0 133 33" fill="none" xmlns="http://www.w3.org/2000/svg">
<path d="M0.00146484 6.80753C0.00146484 6.80753 3.30566 20.3724 3.833 22.5742C4.44849 25.1441 5.55751 26.09 8.75501 25.4521L10.8182 17.0419C11.3412 14.9529 11.6919 13.4636 12.028 11.3385H12.0872C12.3234 13.4845 12.6597 14.9592 13.09 17.0492C13.09 17.0492 13.9299 20.8672 14.36 22.8726C14.7912 24.8772 15.9913 26.1406 19.1233 25.4528L24.0394 6.80896H20.0702L18.3919 14.8696C17.9407 17.2159 17.5312 19.0492 17.2155 21.1957H17.1595C16.8726 19.0706 16.5077 17.3099 16.0489 15.0239L14.3013 6.80896H10.1658L8.29652 14.8169C7.76693 17.2503 7.27162 19.2154 6.95664 21.289H6.89959C6.57703 19.3361 6.14739 16.8665 5.68215 14.5109C5.68215 14.5109 4.57157 8.78326 4.18192 6.80896L0.00185131 6.8095L0.00146484 6.80753ZM37.8395 6.80753V25.4514H41.6185V21.4924V6.80664H37.8395V6.80753ZM91.0632 6.80753V20.5614C91.0632 22.4577 91.4194 23.7863 92.1815 24.598C92.8473 25.3078 93.944 25.7675 95.2581 25.7675C96.3754 25.7675 97.4746 25.5552 97.9927 25.3619L97.944 22.4032C97.5585 22.4982 97.115 22.5743 96.5085 22.5743C95.2212 22.5743 94.7895 21.7483 94.7895 20.0456V14.7835H98.0806V11.2163H94.7895V6.80758H91.063L91.0632 6.80753ZM29.3942 11.1296C27.0457 11.1296 25.1814 11.7902 24.1652 12.3786L24.9089 14.9299C25.8389 14.3425 27.3198 13.8562 28.7219 13.8562C31.0434 13.8502 31.4229 15.1713 31.4229 16.0185V16.2189C26.3645 16.2113 23.1693 17.965 23.1693 21.5396C23.1693 23.7221 24.7958 25.7674 27.6241 25.7674C29.3652 25.7674 30.8213 25.0718 31.694 23.9571H31.7795C31.7795 23.9571 32.3574 26.3778 35.5411 25.4521C35.3738 24.4446 35.3195 23.3704 35.3195 22.0767V17.096C35.3195 13.9217 33.9666 11.1296 29.3943 11.1296L29.3942 11.1296ZM51.9998 11.1296C49.6351 11.1296 48.5724 12.3302 47.9281 13.3488H47.8721V11.4457H44.2656V25.4523H48.0648V17.238C48.0648 16.8529 48.1087 16.4457 48.2428 16.0915C48.5576 15.2645 49.3256 14.297 50.5518 14.297C52.0847 14.297 52.8021 15.5955 52.8021 17.4693V25.4521H56.5971V17.1385C56.5971 16.7709 56.6474 16.3281 56.7554 16.0031C57.0674 15.0624 57.8953 14.2969 59.0352 14.2969C60.5892 14.2969 61.3351 15.5727 61.3351 17.7777V25.4522H65.1328V17.2028C65.1328 12.8522 62.9278 11.1296 60.4387 11.1296C59.3364 11.1296 58.4663 11.4066 57.6797 11.8904C57.0185 12.2969 56.4266 12.8744 55.9092 13.6349H55.8532C55.2512 12.1254 53.8389 11.1296 51.9992 11.1296L51.9998 11.1296ZM72.8619 11.1296C70.5139 11.1296 68.6499 11.7902 67.6328 12.3786L68.3776 14.9299C69.3067 14.3425 70.7884 13.8562 72.1899 13.8562C74.5097 13.8502 74.8901 15.1713 74.8901 16.0185V16.2189C69.8324 16.2113 66.6369 17.965 66.6369 21.5396C66.6369 23.7221 68.2642 25.7674 71.094 25.7674C72.8337 25.7674 74.2903 25.0718 75.1614 23.9571H75.2473C75.2473 23.9571 75.8251 26.3778 79.0092 25.4521C78.8417 24.4446 78.788 23.3704 78.788 22.0767V17.096C78.788 13.9217 77.4347 11.1296 72.8618 11.1296L72.8619 11.1296ZM88.6386 11.1296C87.1838 11.1296 85.5287 12.0704 84.834 14.0872H84.7279V11.4456H81.3079V25.4521H85.2066V18.2799C85.2066 17.8929 85.23 17.5556 85.2911 17.2462C85.5794 15.7438 86.7265 14.7834 88.3727 14.7834C88.8246 14.7834 89.148 14.8324 89.498 14.8831V11.2162C89.2045 11.1568 89.0039 11.1294 88.6388 11.1294L88.6386 11.1296ZM31.5449 18.7009V20.4483C31.5449 20.7068 31.5225 20.9734 31.451 21.2066C31.1585 22.177 30.1551 22.9971 28.9007 22.9971C27.8549 22.9971 27.0241 22.4025 27.0241 21.1445C27.0241 19.2203 29.1383 18.6885 31.545 18.7009H31.5449ZM75.0126 18.7009V20.4483C75.0126 20.7068 74.9896 20.9734 74.9186 21.2066C74.6262 22.177 73.6231 22.9971 72.3687 22.9971C71.3226 22.9971 70.4917 22.4025 70.4917 21.1445C70.4917 19.2203 72.6059 18.6885 75.0127 18.7009H75.0126Z" fill="#A1A89D"/>
<path d="M118.512 0.0654297C117.292 0.0654297 116.322 0.747998 116.322 1.57895L117.063 9.98427C117.145 10.4907 117.764 10.8813 118.513 10.8813C119.263 10.8803 119.88 10.49 119.963 9.98427L120.707 1.57895C120.707 0.748069 119.735 0.0655011 118.513 0.0655011L118.512 0.0654297ZM106.438 6.80778C105.804 6.82284 105.085 7.30327 104.627 8.09826C104.015 9.15687 104.123 10.3399 104.84 10.7549L112.475 14.3173C112.952 14.495 113.6 14.1557 113.975 13.5077C113.975 13.5076 113.975 13.5075 113.975 13.5074C114.352 12.8562 114.323 12.1241 113.926 11.7994L107.03 6.95356C106.851 6.84964 106.649 6.80287 106.438 6.80789L106.438 6.80778ZM130.586 6.80778C130.375 6.80276 130.174 6.84953 129.995 6.95345L123.098 11.7993C122.704 12.124 122.674 12.8561 123.049 13.5073L123.05 13.5076C123.426 14.1556 124.072 14.4949 124.549 14.3172L132.188 10.755C132.907 10.34 133.01 9.157 132.402 8.09834C131.942 7.30332 131.222 6.82292 130.588 6.80786L130.586 6.80778ZM112.76 17.8974C112.661 17.8961 112.566 17.9114 112.476 17.9452L104.841 21.5032C104.125 21.9201 104.016 23.1035 104.628 24.1633C105.238 25.2198 106.314 25.7221 107.03 25.3078L113.927 20.4657C114.324 20.137 114.353 19.4051 113.976 18.7546L113.979 18.756C113.674 18.2262 113.188 17.9031 112.76 17.8973L112.76 17.8974ZM124.267 17.8974C123.839 17.9032 123.354 18.2263 123.049 18.7561L123.052 18.7547C122.676 19.4052 122.705 20.1371 123.1 20.4658L129.997 25.3079C130.712 25.7222 131.788 25.2199 132.401 24.1634C133.009 23.1036 132.906 21.9202 132.187 21.5034L124.551 17.9453C124.461 17.9115 124.366 17.8962 124.267 17.8975L124.267 17.8974ZM118.511 21.3809C117.763 21.3818 117.146 21.7708 117.064 22.2759L116.323 30.6808C116.323 31.5132 117.293 32.1943 118.513 32.1943C119.735 32.1943 120.707 31.5131 120.707 30.6808L119.964 22.2759C119.881 21.7708 119.264 21.3819 118.513 21.3809H118.511H118.511Z" fill="#A1A89D"/>
</svg>
