<svg width="121" height="21" viewBox="0 0 121 21" fill="none" xmlns="http://www.w3.org/2000/svg">
<path d="M11.8755 10.3972C12.83 10.4736 13.6318 10.8554 14.319 11.5808C15.0062 12.3062 15.3499 13.2989 15.3499 14.5588C15.3499 16.086 14.8535 17.346 13.8227 18.2623C12.7918 19.1786 11.3409 19.6368 9.39376 19.6368H0.00146484V1.53943H9.35559C10.9973 1.53943 12.3336 1.99759 13.3263 2.87573C14.319 3.79205 14.8153 4.97564 14.8153 6.46466C14.8153 7.61006 14.5099 8.4882 13.8608 9.17544C13.2118 9.86269 12.5627 10.2063 11.8373 10.2827L11.8755 10.3972ZM4.46853 9.02272H8.3629C9.01196 9.02272 9.54648 8.83182 9.96647 8.45002C10.3483 8.06822 10.5773 7.61006 10.5773 6.961C10.5773 6.3883 10.3864 5.96832 10.0046 5.6247C9.62285 5.28108 9.1265 5.12836 8.5538 5.12836H4.46853V9.02272ZM8.59198 16.0479C9.27923 16.0479 9.85193 15.857 10.2337 15.5133C10.6155 15.1697 10.8064 14.6734 10.8064 14.0243C10.8064 13.4134 10.6155 12.9553 10.1955 12.6117C9.81375 12.268 9.27922 12.0771 8.66834 12.0771H4.46853V16.0479H8.59198ZM30.8128 19.6368H26.4984V18.3387C25.4294 19.4841 24.0167 20.0568 22.3368 20.0568C20.7332 20.0568 19.4733 19.5222 18.5188 18.4914C17.5643 17.4605 17.068 16.086 17.068 14.4061V6.08286H21.3441V13.4898C21.3441 14.2916 21.5732 14.9406 21.9932 15.437C22.4132 15.9333 22.9859 16.1624 23.6731 16.1624C24.5513 16.1624 25.2385 15.857 25.7348 15.2461C26.2312 14.6352 26.4603 13.6807 26.4603 12.3826V6.08286H30.7746L30.8128 19.6368ZM44.1376 19.6368H32.6836V18.835L38.067 9.51906H32.8363V6.08286H44.0613V6.88464L38.6779 16.2006H44.0995V19.6368H44.1376ZM57.4243 19.6368H46.0085V18.835L51.3537 9.51906H46.123V6.08286H57.3479V6.88464L51.9646 16.2006H57.3861L57.4243 19.6368ZM63.8386 9.28998H71.6655V13.1844H63.8386V19.675H59.3715V1.53943H72.3527V5.4338H63.8386V9.28998ZM103.317 13.9861H93.39C93.6572 15.6661 94.9172 16.6206 96.788 16.6206C98.277 16.6206 99.766 16.0479 100.873 15.1697L102.515 18.0332C100.988 19.3313 99.0406 20.0568 96.788 20.0568C92.2445 20.0568 89.152 17.3078 89.152 12.8789C89.152 10.779 89.8392 9.0609 91.2137 7.7246C92.5882 6.3883 94.3063 5.70106 96.3298 5.70106C98.277 5.70106 99.9187 6.35012 101.255 7.68642C102.591 9.02272 103.279 10.7408 103.317 12.9171V13.9861ZM94.5735 9.74815C94.039 10.1299 93.6572 10.6645 93.4663 11.3135H99.0406C98.8497 10.6263 98.5061 10.0918 98.0097 9.70997C97.5134 9.36634 96.9407 9.17544 96.3298 9.17544C95.6808 9.17544 95.108 9.36634 94.5735 9.74815ZM87.5102 13.9861H77.5834C77.8507 15.6661 79.1106 16.6206 80.9814 16.6206C82.4704 16.6206 83.9595 16.0479 85.0667 15.1697L86.7084 18.0332C85.1812 19.3313 83.234 20.0568 80.9814 20.0568C76.438 20.0568 73.3454 17.3078 73.3454 12.8789C73.3454 10.779 74.0326 9.0609 75.4071 7.7246C76.7816 6.3883 78.4997 5.70106 80.5233 5.70106C82.4705 5.70106 84.1122 6.35012 85.4485 7.68642C86.7848 9.02272 87.472 10.7408 87.5102 12.9171V13.9861ZM78.767 9.74815C78.2325 10.1299 77.8507 10.6645 77.6598 11.3135H83.234C83.0431 10.6263 82.6995 10.0918 82.2032 9.70997C81.7068 9.36634 81.1341 9.17544 80.5233 9.17544C79.8742 9.17544 79.3015 9.36634 78.767 9.74815ZM120.001 19.6368H115.687V18.5677C114.58 19.5604 113.205 20.0568 111.487 20.0568C109.655 20.0568 108.089 19.3695 106.791 18.0332C105.493 16.6969 104.844 14.9788 104.844 12.8789C104.844 10.779 105.493 9.0609 106.791 7.7246C108.089 6.3883 109.655 5.70106 111.487 5.70106C113.205 5.70106 114.618 6.1974 115.687 7.19008V0.203125H120.001V19.6368ZM114.733 15.3988C115.382 14.7497 115.725 13.9098 115.725 12.8789C115.725 11.8862 115.382 11.0463 114.733 10.359C114.084 9.70997 113.282 9.36634 112.404 9.36634C111.449 9.36634 110.686 9.70997 110.075 10.359C109.464 11.0081 109.158 11.8481 109.158 12.8789C109.158 13.9098 109.464 14.7879 110.075 15.437C110.686 16.086 111.449 16.3915 112.404 16.3915C113.282 16.3915 114.045 16.0479 114.733 15.3988Z" fill="#A1A89D"/>
</svg>
