<svg width="122" height="25" viewBox="0 0 122 25" fill="none" xmlns="http://www.w3.org/2000/svg">
<path fill-rule="evenodd" clip-rule="evenodd" d="M18.7041 5.75655C18.7041 8.8854 16.166 11.4219 13.0351 11.4219C9.90401 11.4219 7.36596 8.8854 7.36596 5.75655C7.36596 2.62832 9.90401 0.0917969 13.0351 0.0917969C16.166 0.0917969 18.7041 2.62832 18.7041 5.75655ZM5.6706 12.8383C2.53964 12.8383 0.00146484 15.3741 0.00146484 18.5029C0.00146484 21.6315 2.53964 24.1678 5.6706 24.1678C8.80168 24.1678 11.34 21.6315 11.34 18.5029C11.34 15.3741 8.80168 12.8383 5.6706 12.8383ZM20.3995 12.8378C17.2685 12.8378 14.7303 15.3741 14.7303 18.5029C14.7303 21.6315 17.2685 24.1678 20.3995 24.1678C23.5304 24.1678 26.0686 21.6315 26.0686 18.5029C26.0686 15.3741 23.5304 12.8378 20.3995 12.8378Z" fill="#A1A89D"/>
<path fill-rule="evenodd" clip-rule="evenodd" d="M46.0152 18.4377C46.0891 19.2781 46.7618 20.3479 47.9272 20.3479H48.6092C48.8735 20.3479 49.0901 20.1313 49.0901 19.867V4.88105H49.0872C49.0734 4.62859 48.8647 4.42638 48.6092 4.42638H46.4962C46.2406 4.42638 46.0319 4.62859 46.0177 4.88105H46.0152V6.09875C44.7205 4.50415 42.6794 3.84229 40.6326 3.84229C35.9801 3.84229 32.2085 7.61393 32.2085 12.2668C32.2085 16.9199 35.9801 20.6917 40.6326 20.6917V20.692C42.6794 20.692 44.9101 19.8979 46.0149 18.4358L46.0152 18.4377ZM40.6409 17.7431C37.6819 17.7431 35.2831 15.2915 35.2831 12.2668C35.2831 9.24255 37.6819 6.79079 40.6409 6.79079C43.5997 6.79079 45.9983 9.24255 45.9983 12.2668C45.9983 15.2915 43.5997 17.7431 40.6409 17.7431Z" fill="#A1A89D"/>
<path fill-rule="evenodd" clip-rule="evenodd" d="M80.441 18.4373C80.5149 19.2777 81.1876 20.3474 82.353 20.3474H83.0349C83.2993 20.3474 83.5157 20.1309 83.5157 19.8665V4.88057H83.513C83.4992 4.6281 83.2902 4.4259 83.0349 4.4259H80.9219C80.6664 4.4259 80.4577 4.6281 80.4434 4.88057H80.441V6.09826C79.1462 4.50366 77.1051 3.8418 75.0582 3.8418C70.4057 3.8418 66.6343 7.61344 66.6343 12.2663C66.6343 16.9194 70.4057 20.6912 75.0582 20.6912V20.6915C77.1051 20.6915 79.3359 19.8974 80.4407 18.4353L80.441 18.4373ZM75.0664 17.7427C72.1077 17.7427 69.7087 15.291 69.7087 12.2663C69.7087 9.24207 72.1077 6.79031 75.0664 6.79031C78.0255 6.79031 80.4239 9.24207 80.4239 12.2663C80.4239 15.291 78.0255 17.7427 75.0664 17.7427Z" fill="#A1A89D"/>
<path fill-rule="evenodd" clip-rule="evenodd" d="M118.925 18.4373C118.999 19.2777 119.671 20.3474 120.837 20.3474H121.519C121.783 20.3474 122 20.1309 122 19.8665V4.88057H121.997C121.983 4.6281 121.774 4.4259 121.519 4.4259H119.406C119.15 4.4259 118.942 4.6281 118.928 4.88057H118.925V6.09826C117.63 4.50366 115.589 3.8418 113.542 3.8418C108.89 3.8418 105.118 7.61344 105.118 12.2663C105.118 16.9194 108.89 20.6912 113.542 20.6912V20.6915C115.589 20.6915 117.82 19.8974 118.925 18.4353L118.925 18.4373ZM113.551 17.7427C110.592 17.7427 108.193 15.291 108.193 12.2663C108.193 9.24207 110.592 6.79031 113.551 6.79031C116.509 6.79031 118.908 9.24207 118.908 12.2663C118.908 15.291 116.509 17.7427 113.551 17.7427Z" fill="#A1A89D"/>
<path fill-rule="evenodd" clip-rule="evenodd" d="M102.445 18.9536L102.444 11.199H102.445C102.445 6.8278 99.6871 3.87891 95.2897 3.87891C93.1905 3.87891 91.4698 5.09276 90.862 6.1355C90.7307 5.32016 90.2978 4.46313 88.9555 4.46313H88.2713C88.0067 4.46313 87.7905 4.67979 87.7905 4.94415V18.4758V18.4778V19.9314H87.7932C87.807 20.1834 88.016 20.3859 88.2715 20.3859H90.3845C90.4169 20.3859 90.4486 20.3821 90.4793 20.3761C90.4932 20.3734 90.5063 20.3679 90.5198 20.364C90.5355 20.3592 90.5519 20.3555 90.5669 20.3493C90.5857 20.3415 90.6027 20.331 90.6202 20.3213C90.6288 20.3161 90.6377 20.3124 90.646 20.3069C90.6671 20.2933 90.6865 20.2769 90.7051 20.2602C90.7082 20.2571 90.7119 20.2551 90.715 20.2522C90.7359 20.2319 90.7551 20.2095 90.7721 20.1863L90.7723 20.1859C90.8252 20.1132 90.8573 20.0257 90.8626 19.9314H90.8652V11.0788C90.8652 8.73114 92.7686 6.8278 95.1164 6.8278C97.4641 6.8278 99.3675 8.73114 99.3675 11.0788L99.3694 18.4783L99.3699 18.4758C99.3699 18.4823 99.3709 18.4891 99.3709 18.4961V19.9314H99.3737C99.3877 20.1834 99.5964 20.3859 99.8519 20.3859H101.965C101.998 20.3859 102.029 20.3821 102.06 20.3761C102.072 20.3737 102.084 20.3688 102.096 20.3653C102.113 20.3603 102.131 20.356 102.148 20.3493C102.165 20.3422 102.181 20.3322 102.197 20.323C102.207 20.3173 102.217 20.3133 102.227 20.3069C102.246 20.2941 102.264 20.2786 102.282 20.2632C102.286 20.2592 102.291 20.2561 102.296 20.2519C102.316 20.2326 102.333 20.2117 102.35 20.1898C102.351 20.1882 102.352 20.1869 102.354 20.1852C102.406 20.1132 102.437 20.0264 102.443 19.9326C102.443 19.932 102.443 19.9314 102.443 19.9314H102.446V18.9538L102.445 18.9536Z" fill="#A1A89D"/>
<path fill-rule="evenodd" clip-rule="evenodd" d="M54.137 16.2912C55.5477 17.2684 57.0873 17.743 58.567 17.743C59.9766 17.743 61.4339 17.0122 61.4339 15.7403C61.4339 14.0421 58.2584 13.7779 56.2633 13.0998C54.2679 12.4217 52.5492 11.0199 52.5492 8.74992C52.5492 5.2764 55.6441 3.8418 58.5327 3.8418C60.363 3.8418 62.2514 4.44534 63.4756 5.30991C63.8973 5.6294 63.6405 5.9962 63.6405 5.9962L62.4718 7.66537C62.3405 7.85337 62.1108 8.0158 61.7811 7.81232C61.4514 7.60897 60.295 6.79043 58.5327 6.79043C56.7703 6.79043 55.7087 7.60436 55.7087 8.6132C55.7087 9.82297 57.0885 10.2035 58.7046 10.6158C61.521 11.375 64.5933 12.2875 64.5933 15.7403C64.5933 18.8007 61.7307 20.6921 58.567 20.6921C56.1695 20.6921 54.1282 20.0086 52.4163 18.7523C52.0596 18.3953 52.3087 18.0639 52.3087 18.0639L53.4716 16.4032C53.7082 16.0927 54.0066 16.201 54.137 16.2912Z" fill="#A1A89D"/>
</svg>
